<svg version="1.1" id="Layer_1" xmlns="http://www.w3.org/2000/svg" x="0" y="0" viewBox="0 0 94.7 94.7" style="enable-background:new 0 0 94.7 94.7" xml:space="preserve"><style>.st1{opacity:.1;fill:#0084bf}.st2{opacity:.5}.st6{fill:#6b89f2}.st7{fill:#fff}.st10{fill:#71bdd1}.st12{fill:#545454}</style><path class="st1" d="M63.3 23.1c4.4 1.6 7.1 8.5 8 12.7 1 5 1 10.8 4.5 14.9 1.3 1.6 3.1 2.8 4.2 4.5 2.8 4.4-.1 9-3.5 12-1.5 1.4-3.2 2.6-5 3.7-1.6 1-3.4 1.5-4.7 2.8-2.8 2.7-4.5 6.5-4.9 10.4-.2 2-.6 3.3-1.9 4.8-3.5 4.3-9 3.6-13.4 1.1-2.3-1.3-4.4-3.1-6.2-5-2.1-2.3-3.1-5.2-5-7.6-2-2.4-4.8-4-7.8-4.8-2.8-.7-5.6-.4-8-2-2-1.3-3.7-3.4-4.9-5.5-3.7-6.8 1.5-16.2 8.3-18.7 2.5-.9 5.3-1 7.9-.2.2.1.5.2.7.1.4-.1.5-.7.5-1.2 0-4.1-.8-8.2 1.8-11.7 3.3-4.4 9.8-5.6 15-4.8 0 0 1.9-2.7 2.2-3 1-1 2.2-1.8 3.4-2.4 2.8-1.3 6-1.1 8.8-.1z"/><ellipse transform="rotate(-48.511 27.909 81.95)" class="st1" cx="27.9" cy="82" rx="3.6" ry="6.1"/><path d="M23 39c-.5 0-1-.2-1.3-.5-.8-.7-.9-2-.2-2.9.7-.8 2-.9 2.9-.2.4.4.6.9.7 1.4 0 .5-.1 1.1-.5 1.5-.5.4-1.1.7-1.6.7zm0-3.2c-.3 0-.6.1-.9.4-.4.5-.4 1.2.1 1.6.5.4 1.2.4 1.6-.1.2-.2.3-.5.3-.8 0-.3-.2-.6-.4-.8-.2-.2-.5-.3-.7-.3z" style="fill:#ccb03b" class="st2"/><circle cx="24.7" cy="23.4" r="1.2" style="fill:#ffbbbe"/><circle cx="40.3" cy="22.9" r="1.2" style="fill:#bbf4ae"/><g class="st2"><path transform="rotate(-40.624 30.82 26.889)" class="st6" d="M30.4 25.3h.9v3.3h-.9z"/><path transform="rotate(-40.872 30.818 26.888)" class="st6" d="M29.2 26.4h3.3v.9h-3.3z"/></g><path class="st7" d="M63.4 75.4s4 4.9 7.7 0"/><path class="st7" d="M63.4 75.4s3.6 5 7.5.2c0 0 2.3-3.5-.7-6.2L59.7 55.8l-1.8 1.4-2.9-3.6-3.7 2.2 2.8 4-1.5 1.3"/><path class="st7" d="M43.9 58c-8.6 0-15.5-7-15.5-15.5 0-8.6 7-15.5 15.5-15.5s15.5 7 15.5 15.5S52.5 58 43.9 58zm0-27.8c-6.8 0-12.3 5.5-12.3 12.3s5.5 12.3 12.3 12.3 12.3-5.5 12.3-12.3-5.5-12.3-12.3-12.3z"/><circle class="st7" cx="44.1" cy="42.3" r="12.5" style="opacity:.22"/><path d="M46.7 30.5c-.9-.2-1.9-.3-2.8-.3-6.7 0-12.2 5.5-12.2 12.2 0 2.6.8 5 2.2 7-.3-1.2-.5-2.4-.5-3.7 0-7.7 5.8-14.2 13.3-15.2z" style="opacity:.12;fill:#0084bf"/><path class="st10" d="M43.9 55.2c-7 0-12.7-5.7-12.7-12.7 0-7 5.7-12.7 12.7-12.7s12.7 5.7 12.7 12.7c0 7-5.7 12.7-12.7 12.7zm0-24.8c-6.7 0-12.1 5.4-12.1 12.1 0 6.7 5.4 12.1 12.1 12.1S56 49.2 56 42.5c0-6.7-5.4-12.1-12.1-12.1z"/><path style="fill:#feefac" d="m61.6 58.2-7 5.6-2-2.5 7.1-5.5z"/><path class="st10" d="M43.9 58.8c-9 0-16.3-7.3-16.3-16.3s7.3-16.3 16.3-16.3 16.3 7.3 16.3 16.3-7.3 16.3-16.3 16.3zm0-32c-8.7 0-15.7 7-15.7 15.7s7 15.7 15.7 15.7 15.7-7 15.7-15.7-7-15.7-15.7-15.7zM63.8 76.3 52.2 61.2l7.6-5.9 11.6 15.1-7.6 5.9zM53 61.3l10.9 14.2 6.7-5.1-10.9-14.2-6.7 5.1z"/><path transform="rotate(-38.337 58.099 61.033)" class="st10" d="M53.6 60.7h9v.6h-9z"/><path transform="rotate(-37.761 60.775 68.36)" class="st10" d="M60.5 62.9h.6v10.9h-.6z"/><path transform="rotate(-37.761 62.622 66.93)" class="st10" d="M62.3 61.5h.6v10.9h-.6z"/><path transform="rotate(-37.761 64.277 65.644)" class="st10" d="M64 60.2h.6v10.9H64z"/><path transform="rotate(-37.577 56.642 55.307)" class="st10" d="M56.3 53.2h.6v4.2h-.6z"/><path transform="rotate(-37.577 53.113 58.248)" class="st10" d="M52.8 56.2h.6v4.2h-.6z"/><path class="st10" d="M67.2 77.9c-1.3 0-2.6-.6-3.6-1.8l-.2-.2L71 70l.2.3c.6.9.9 1.8.9 2.7.1 2.7-2.2 4.9-4.9 4.9zm-3-2c.9.9 1.9 1.4 3 1.4 2.4 0 4.3-1.9 4.3-4.3 0-.7-.2-1.4-.7-2.1l-6.6 5z"/><circle class="st10" cx="48.6" cy="40.6" r=".9"/><circle class="st10" cx="39.2" cy="40.6" r=".9"/><path class="st10" d="M41.3 46.3h.6C42.1 45 43 44 44.1 44s2 1 2.2 2.3h.6c-.1-1.8-1.3-2.9-2.8-2.9s-2.7 1.1-2.8 2.9"/><g><path class="st12" d="M19.6 11.8h-.8l-2.9-4.5v4.5h-.8V6h.8l3 4.5V6h.8v5.8zM20.7 9.6c0-.4.1-.8.3-1.1.2-.3.4-.6.7-.8.3-.2.6-.3 1-.3.6 0 1.1.2 1.4.6.4.4.5 1 .5 1.6v.1c0 .4-.1.8-.2 1.1-.2.3-.4.6-.7.8-.3.2-.6.3-1 .3-.6 0-1.1-.2-1.4-.6-.4-.4-.6-.9-.6-1.7zm.7.1c0 .5.1.9.3 1.2.2.3.5.4.9.4s.7-.1.9-.4c.2-.3.3-.7.3-1.2s-.1-.9-.3-1.2c-.2-.3-.5-.5-.8-.5-.4 0-.7.1-.9.4-.3.4-.4.8-.4 1.3zM29.7 8.2h-.4c-.5 0-.8.2-1 .6v3.1h-.7V7.5h.7V8c.2-.4.6-.6 1-.6.1 0 .3 0 .3.1v.7zM32.1 11.9c-.6 0-1.1-.2-1.4-.6-.4-.4-.6-.9-.6-1.6 0-.4.1-.8.2-1.2.2-.3.4-.6.7-.8.3-.2.6-.3 1-.3.6 0 1 .2 1.3.6.3.4.5.9.5 1.6v.3h-2.9c0 .4.1.8.4 1 .2.3.5.4.9.4.3 0 .5-.1.7-.2.2-.1.3-.2.5-.4l.5.4c-.5.5-1 .8-1.8.8zM32 8c-.3 0-.6.1-.8.3-.2.2-.3.5-.4.9H33c0-.4-.1-.7-.3-.9-.1-.2-.4-.3-.7-.3zM36.4 11.3c.3 0 .5-.1.7-.2s.3-.4.3-.6h.7c0 .2-.1.5-.3.7-.2.2-.4.4-.6.5-.3.1-.5.2-.8.2-.6 0-1.1-.2-1.4-.6-.3-.4-.5-.9-.5-1.6v-.1c0-.4.1-.8.2-1.1.2-.3.4-.6.7-.8.3-.2.6-.3 1-.3.5 0 .9.1 1.2.4.4.3.5.7.6 1.2h-.7c0-.3-.1-.5-.3-.7-.3-.2-.5-.3-.8-.3-.4 0-.7.1-.9.4-.2.3-.3.7-.3 1.2v.1c0 .5.1.9.3 1.2.3.3.5.4.9.4zM38.8 9.6c0-.4.1-.8.3-1.1.2-.3.4-.6.7-.8s.6-.3 1-.3c.6 0 1.1.2 1.4.6.4.4.5 1 .5 1.6v.1c0 .4-.1.8-.2 1.1-.2.3-.4.6-.7.8-.3.2-.6.3-1 .3-.6 0-1.1-.2-1.4-.6-.4-.4-.6-.9-.6-1.7zm.7.1c0 .5.1.9.3 1.2.2.3.5.4.9.4s.7-.1.9-.4c.2-.3.3-.7.3-1.2s-.1-.9-.3-1.2c-.2-.3-.5-.5-.8-.5-.4 0-.7.1-.9.4-.2.4-.4.8-.4 1.3zM45.8 8.2h-.4c-.5 0-.8.2-1 .6v3.1h-.7V7.5h.7V8c.2-.4.6-.6 1-.6.1 0 .3 0 .3.1v.7zM46.2 9.6c0-.7.2-1.2.5-1.6s.7-.6 1.2-.6.9.2 1.2.5V5.7h.7v6.2h-.7v-.5c-.3.4-.7.5-1.2.5s-.9-.2-1.2-.6c-.3-.4-.5-.9-.5-1.7zm.8.1c0 .5.1.9.3 1.2.2.3.5.4.8.4.5 0 .8-.2 1-.6v-2c-.2-.4-.6-.6-1-.6s-.6.1-.9.4-.2.7-.2 1.2zM53.6 10.7c0-.2-.1-.4-.2-.5-.2-.1-.4-.2-.8-.3-.4-.1-.7-.2-.9-.3-.2-.1-.4-.2-.5-.4-.1-.1-.2-.3-.2-.5 0-.4.2-.7.5-.9.3-.2.7-.4 1.2-.4s.9.1 1.2.4c.3.3.5.6.5 1h-.7c0-.2-.1-.4-.3-.5-.3-.2-.5-.3-.8-.3-.3 0-.5.1-.6.2-.2.1-.2.3-.2.5s.1.3.2.4c.1.1.4.2.8.3.4.1.7.2.9.3.2.1.4.3.5.4.1.2.2.4.2.6 0 .4-.2.7-.5.9-.3.2-.7.4-1.2.4-.3 0-.7-.1-.9-.2-.3-.1-.5-.3-.6-.5-.2-.2-.2-.5-.2-.7h.7c0 .2.1.4.3.6.2.1.4.2.7.2.3 0 .5-.1.7-.2.1-.2.2-.3.2-.5zM57.7 11.8V8.1H57v-.6h.7V7c0-.5.1-.8.4-1.1.2-.3.6-.4 1.1-.4.2 0 .3 0 .5.1v.6h-.4c-.2 0-.4.1-.6.2-.1.1-.2.3-.2.6v.5h.9v.6h-.9v3.8h-.8zM60 9.6c0-.4.1-.8.3-1.1.2-.3.4-.6.7-.8s.6-.3 1-.3c.6 0 1.1.2 1.4.6.4.4.6 1 .6 1.7v.1c0 .4-.1.8-.2 1.1-.2.3-.4.6-.7.8-.3.2-.6.3-1 .3-.6 0-1.1-.2-1.4-.6-.5-.5-.7-1-.7-1.8zm.7.1c0 .5.1.9.3 1.2.2.3.5.4.9.4s.7-.1.9-.4c.2-.3.3-.7.3-1.2s-.1-.9-.3-1.2c-.2-.3-.5-.5-.8-.5-.4 0-.7.1-.9.4-.2.4-.4.8-.4 1.3zM67.6 11.4c-.3.3-.7.5-1.3.5-.5 0-.8-.1-1.1-.4-.2-.3-.4-.7-.4-1.2V7.5h.7v2.8c0 .7.3 1 .8 1 .6 0 .9-.2 1.1-.6V7.5h.7v4.4h-.7l.2-.5zM70.1 7.5V8c.3-.4.8-.6 1.3-.6.9 0 1.4.5 1.4 1.6v2.9h-.7V9c0-.3-.1-.5-.2-.7-.2-.2-.4-.3-.7-.3-.2 0-.5.1-.6.2-.2.1-.3.3-.4.5v3.1h-.7V7.5h.6zM73.8 9.6c0-.7.2-1.2.5-1.6s.7-.6 1.2-.6.9.2 1.2.5V5.7h.7v6.2h-.7v-.5c-.3.4-.7.5-1.2.5s-.9-.2-1.2-.6c-.4-.4-.5-.9-.5-1.7zm.7.1c0 .5.1.9.3 1.2.2.3.5.4.8.4.5 0 .8-.2 1-.6v-2c-.2-.4-.6-.6-1-.6s-.6.1-.9.4-.2.7-.2 1.2zM78.6 11.5c0-.1 0-.2.1-.3.1-.1.2-.1.3-.1s.3 0 .3.1c.1.1.1.2.1.3 0 .1 0 .2-.1.3-.1.1-.2.1-.3.1s-.3 0-.3-.1-.1-.2-.1-.3z"/></g></svg>